<mxfile host="Electron" agent="Mozilla/5.0 (Windows NT 10.0; Win64; x64) AppleWebKit/537.36 (KHTML, like Gecko) draw.io/25.0.2 Chrome/128.0.6613.186 Electron/32.2.5 Safari/537.36" version="25.0.2">
  <diagram name="Page-1" id="a-vqMKsfqLVEcHRjrvc6">
    <mxGraphModel dx="1434" dy="844" grid="1" gridSize="10" guides="1" tooltips="1" connect="1" arrows="1" fold="1" page="1" pageScale="1" pageWidth="850" pageHeight="1100" math="0" shadow="0">
      <root>
        <mxCell id="0" />
        <mxCell id="1" parent="0" />
        <mxCell id="RNNwJx5j2ftt1lKAi-Dt-105" value="&lt;div style=&quot;&quot;&gt;&lt;br&gt;&lt;/div&gt;" style="rounded=1;whiteSpace=wrap;html=1;dashed=1;fillColor=none;align=center;" parent="1" vertex="1">
          <mxGeometry x="60" y="160" width="120" height="280" as="geometry" />
        </mxCell>
        <mxCell id="KqMzpRPopXXgvbSDG0jJ-16" value="H = Height adjustment = 450mm&lt;div&gt;L = Linaire adjustment = 180mm&lt;/div&gt;&lt;div&gt;Moving time 30s&lt;/div&gt;" style="text;html=1;align=center;verticalAlign=middle;whiteSpace=wrap;rounded=0;fillColor=#fff2cc;strokeColor=#d6b656;" parent="1" vertex="1">
          <mxGeometry x="40" y="40" width="240" height="80" as="geometry" />
        </mxCell>
        <mxCell id="RNNwJx5j2ftt1lKAi-Dt-1" value="i = 2" style="whiteSpace=wrap;html=1;aspect=fixed;" parent="1" vertex="1">
          <mxGeometry x="200" y="350" width="80" height="80" as="geometry" />
        </mxCell>
        <mxCell id="RNNwJx5j2ftt1lKAi-Dt-2" value="i = 24" style="whiteSpace=wrap;html=1;aspect=fixed;" parent="1" vertex="1">
          <mxGeometry x="320" y="350" width="80" height="80" as="geometry" />
        </mxCell>
        <mxCell id="RNNwJx5j2ftt1lKAi-Dt-3" value="M" style="ellipse;whiteSpace=wrap;html=1;aspect=fixed;" parent="1" vertex="1">
          <mxGeometry x="80" y="350" width="80" height="80" as="geometry" />
        </mxCell>
        <mxCell id="RNNwJx5j2ftt1lKAi-Dt-4" value="" style="endArrow=classic;html=1;rounded=0;exitX=1;exitY=0.5;exitDx=0;exitDy=0;entryX=0;entryY=0.5;entryDx=0;entryDy=0;" parent="1" source="RNNwJx5j2ftt1lKAi-Dt-3" target="RNNwJx5j2ftt1lKAi-Dt-1" edge="1">
          <mxGeometry width="50" height="50" relative="1" as="geometry">
            <mxPoint x="320" y="330" as="sourcePoint" />
            <mxPoint x="370" y="280" as="targetPoint" />
          </mxGeometry>
        </mxCell>
        <mxCell id="RNNwJx5j2ftt1lKAi-Dt-5" value="" style="endArrow=classic;html=1;rounded=0;exitX=1;exitY=0.5;exitDx=0;exitDy=0;entryX=0;entryY=0.5;entryDx=0;entryDy=0;" parent="1" source="RNNwJx5j2ftt1lKAi-Dt-1" target="RNNwJx5j2ftt1lKAi-Dt-2" edge="1">
          <mxGeometry width="50" height="50" relative="1" as="geometry">
            <mxPoint x="170" y="400" as="sourcePoint" />
            <mxPoint x="210" y="400" as="targetPoint" />
          </mxGeometry>
        </mxCell>
        <mxCell id="RNNwJx5j2ftt1lKAi-Dt-6" value="&lt;div&gt;right angle transmission (motor)&lt;/div&gt;" style="text;html=1;align=center;verticalAlign=middle;whiteSpace=wrap;rounded=0;" parent="1" vertex="1">
          <mxGeometry x="200" y="290" width="80" height="60" as="geometry" />
        </mxCell>
        <mxCell id="RNNwJx5j2ftt1lKAi-Dt-7" value="right angle transmission&lt;div&gt;(spindle)&lt;/div&gt;" style="text;html=1;align=center;verticalAlign=middle;whiteSpace=wrap;rounded=0;" parent="1" vertex="1">
          <mxGeometry x="320" y="290" width="80" height="60" as="geometry" />
        </mxCell>
        <mxCell id="RNNwJx5j2ftt1lKAi-Dt-9" value="" style="endArrow=classic;html=1;rounded=0;exitX=1;exitY=0.5;exitDx=0;exitDy=0;" parent="1" source="RNNwJx5j2ftt1lKAi-Dt-2" edge="1">
          <mxGeometry width="50" height="50" relative="1" as="geometry">
            <mxPoint x="440" y="390" as="sourcePoint" />
            <mxPoint x="440" y="390" as="targetPoint" />
          </mxGeometry>
        </mxCell>
        <mxCell id="RNNwJx5j2ftt1lKAi-Dt-10" value="6mm / rev" style="rounded=0;whiteSpace=wrap;html=1;" parent="1" vertex="1">
          <mxGeometry x="440" y="380" width="160" height="20" as="geometry" />
        </mxCell>
        <mxCell id="RNNwJx5j2ftt1lKAi-Dt-11" value="Spindle driven Scissor Lift&lt;div&gt;&lt;br&gt;&lt;/div&gt;&lt;div&gt;Heighte&amp;nbsp;adjustment 450mm&lt;br&gt;&lt;/div&gt;" style="text;html=1;align=center;verticalAlign=middle;whiteSpace=wrap;rounded=0;" parent="1" vertex="1">
          <mxGeometry x="460" y="230" width="120" height="80" as="geometry" />
        </mxCell>
        <mxCell id="RNNwJx5j2ftt1lKAi-Dt-14" value="" style="endArrow=none;html=1;rounded=0;" parent="1" edge="1">
          <mxGeometry width="50" height="50" relative="1" as="geometry">
            <mxPoint x="640" y="370" as="sourcePoint" />
            <mxPoint x="760" y="350" as="targetPoint" />
          </mxGeometry>
        </mxCell>
        <mxCell id="RNNwJx5j2ftt1lKAi-Dt-15" value="" style="endArrow=none;html=1;rounded=0;" parent="1" edge="1">
          <mxGeometry width="50" height="50" relative="1" as="geometry">
            <mxPoint x="760" y="370" as="sourcePoint" />
            <mxPoint x="640" y="350" as="targetPoint" />
          </mxGeometry>
        </mxCell>
        <mxCell id="RNNwJx5j2ftt1lKAi-Dt-16" value="" style="endArrow=classic;startArrow=classic;html=1;rounded=0;" parent="1" edge="1">
          <mxGeometry width="50" height="50" relative="1" as="geometry">
            <mxPoint x="800" y="370" as="sourcePoint" />
            <mxPoint x="800" y="250" as="targetPoint" />
          </mxGeometry>
        </mxCell>
        <mxCell id="RNNwJx5j2ftt1lKAi-Dt-17" value="H = 450mm" style="edgeLabel;html=1;align=center;verticalAlign=middle;resizable=0;points=[];" parent="RNNwJx5j2ftt1lKAi-Dt-16" vertex="1" connectable="0">
          <mxGeometry x="0.05" y="-4" relative="1" as="geometry">
            <mxPoint as="offset" />
          </mxGeometry>
        </mxCell>
        <mxCell id="RNNwJx5j2ftt1lKAi-Dt-18" value="" style="endArrow=classic;startArrow=classic;html=1;rounded=0;" parent="1" edge="1">
          <mxGeometry width="50" height="50" relative="1" as="geometry">
            <mxPoint x="640" y="370" as="sourcePoint" />
            <mxPoint x="740" y="370" as="targetPoint" />
          </mxGeometry>
        </mxCell>
        <mxCell id="RNNwJx5j2ftt1lKAi-Dt-19" value="L = 180mm" style="text;html=1;align=center;verticalAlign=middle;whiteSpace=wrap;rounded=0;" parent="1" vertex="1">
          <mxGeometry x="650" y="390" width="90" height="30" as="geometry" />
        </mxCell>
        <mxCell id="RNNwJx5j2ftt1lKAi-Dt-20" value="" style="endArrow=none;html=1;rounded=0;" parent="1" edge="1">
          <mxGeometry width="50" height="50" relative="1" as="geometry">
            <mxPoint x="740" y="370" as="sourcePoint" />
            <mxPoint x="760" y="250" as="targetPoint" />
          </mxGeometry>
        </mxCell>
        <mxCell id="RNNwJx5j2ftt1lKAi-Dt-21" value="" style="endArrow=none;html=1;rounded=0;" parent="1" edge="1">
          <mxGeometry width="50" height="50" relative="1" as="geometry">
            <mxPoint x="760" y="370" as="sourcePoint" />
            <mxPoint x="740" y="250" as="targetPoint" />
          </mxGeometry>
        </mxCell>
        <mxCell id="RNNwJx5j2ftt1lKAi-Dt-22" value="Revolution for full stroke:&lt;div&gt;180mm / 6mm = 30&lt;b&gt;&amp;nbsp;revolutions&lt;/b&gt;&lt;br&gt;&lt;br&gt;Speed:&lt;/div&gt;&lt;div&gt;30 rev / 30s * 60s = &lt;b&gt;60&amp;nbsp;rpm&lt;/b&gt;&lt;/div&gt;" style="text;html=1;align=center;verticalAlign=middle;whiteSpace=wrap;rounded=0;" parent="1" vertex="1">
          <mxGeometry x="440" y="400" width="200" height="120" as="geometry" />
        </mxCell>
        <mxCell id="RNNwJx5j2ftt1lKAi-Dt-23" value="&lt;div&gt;&lt;b&gt;1440 rpm&lt;/b&gt;&lt;/div&gt;" style="text;html=1;align=center;verticalAlign=middle;whiteSpace=wrap;rounded=0;fontColor=#000000;" parent="1" vertex="1">
          <mxGeometry x="280" y="450" width="40" height="40" as="geometry" />
        </mxCell>
        <mxCell id="RNNwJx5j2ftt1lKAi-Dt-24" value="&lt;div&gt;&lt;b&gt;2880 rpm&lt;/b&gt;&lt;/div&gt;" style="text;html=1;align=center;verticalAlign=middle;whiteSpace=wrap;rounded=0;fontColor=#000000;" parent="1" vertex="1">
          <mxGeometry x="160" y="450" width="40" height="40" as="geometry" />
        </mxCell>
        <mxCell id="RNNwJx5j2ftt1lKAi-Dt-25" value="" style="endArrow=classic;html=1;rounded=0;" parent="1" edge="1">
          <mxGeometry width="50" height="50" relative="1" as="geometry">
            <mxPoint x="400" y="469.5" as="sourcePoint" />
            <mxPoint x="360" y="469.5" as="targetPoint" />
          </mxGeometry>
        </mxCell>
        <mxCell id="RNNwJx5j2ftt1lKAi-Dt-26" value="" style="endArrow=classic;html=1;rounded=0;" parent="1" edge="1">
          <mxGeometry width="50" height="50" relative="1" as="geometry">
            <mxPoint x="260" y="469.5" as="sourcePoint" />
            <mxPoint x="220" y="469.5" as="targetPoint" />
          </mxGeometry>
        </mxCell>
        <mxCell id="RNNwJx5j2ftt1lKAi-Dt-27" value="" style="endArrow=none;html=1;rounded=0;exitX=0.25;exitY=0;exitDx=0;exitDy=0;" parent="1" source="RNNwJx5j2ftt1lKAi-Dt-10" edge="1">
          <mxGeometry width="50" height="50" relative="1" as="geometry">
            <mxPoint x="540" y="380" as="sourcePoint" />
            <mxPoint x="560" y="310" as="targetPoint" />
          </mxGeometry>
        </mxCell>
        <mxCell id="RNNwJx5j2ftt1lKAi-Dt-28" value="" style="endArrow=none;html=1;rounded=0;" parent="1" edge="1">
          <mxGeometry width="50" height="50" relative="1" as="geometry">
            <mxPoint x="560" y="380" as="sourcePoint" />
            <mxPoint x="480" y="310" as="targetPoint" />
          </mxGeometry>
        </mxCell>
        <mxCell id="RNNwJx5j2ftt1lKAi-Dt-29" value="" style="endArrow=classic;startArrow=classic;html=1;rounded=0;" parent="1" edge="1">
          <mxGeometry width="50" height="50" relative="1" as="geometry">
            <mxPoint x="580" y="370" as="sourcePoint" />
            <mxPoint x="580" y="310" as="targetPoint" />
          </mxGeometry>
        </mxCell>
        <mxCell id="RNNwJx5j2ftt1lKAi-Dt-106" value="&lt;div&gt;BECKHOFF&lt;/div&gt;AX5206-0000-0202" style="whiteSpace=wrap;html=1;aspect=fixed;" parent="1" vertex="1">
          <mxGeometry x="80" y="180" width="80" height="80" as="geometry" />
        </mxCell>
        <mxCell id="_icnxme9yWvz6Rh2GXl3-3" value="" style="endArrow=classic;html=1;rounded=0;entryX=0.5;entryY=0;entryDx=0;entryDy=0;exitX=0.5;exitY=1;exitDx=0;exitDy=0;" parent="1" source="RNNwJx5j2ftt1lKAi-Dt-106" target="RNNwJx5j2ftt1lKAi-Dt-3" edge="1">
          <mxGeometry width="50" height="50" relative="1" as="geometry">
            <mxPoint x="400" y="470" as="sourcePoint" />
            <mxPoint x="450" y="420" as="targetPoint" />
          </mxGeometry>
        </mxCell>
        <mxCell id="RNNwJx5j2ftt1lKAi-Dt-8" value="&lt;div&gt;BECKHOFF&lt;/div&gt;AM8033-0FH1-0000" style="text;html=1;align=center;verticalAlign=middle;whiteSpace=wrap;rounded=0;fillColor=default;" parent="1" vertex="1">
          <mxGeometry x="80" y="280" width="80" height="40" as="geometry" />
        </mxCell>
        <mxCell id="DCk4KiSvBSPvOZ2nIe85-1" value="&lt;b&gt;720 rev&lt;/b&gt;" style="text;html=1;align=center;verticalAlign=middle;whiteSpace=wrap;rounded=0;fontColor=#000000;" parent="1" vertex="1">
          <mxGeometry x="280" y="520" width="80" height="40" as="geometry" />
        </mxCell>
        <mxCell id="DCk4KiSvBSPvOZ2nIe85-2" value="&lt;div&gt;&lt;b&gt;1440 motor/encoder revolutons&amp;nbsp;&lt;/b&gt;&lt;/div&gt;" style="text;html=1;align=center;verticalAlign=middle;whiteSpace=wrap;rounded=0;fontColor=#000000;" parent="1" vertex="1">
          <mxGeometry x="40" y="520" width="160" height="40" as="geometry" />
        </mxCell>
        <mxCell id="DCk4KiSvBSPvOZ2nIe85-3" value="" style="endArrow=classic;html=1;rounded=0;" parent="1" edge="1">
          <mxGeometry width="50" height="50" relative="1" as="geometry">
            <mxPoint x="400" y="539.5" as="sourcePoint" />
            <mxPoint x="360" y="539.5" as="targetPoint" />
          </mxGeometry>
        </mxCell>
        <mxCell id="DCk4KiSvBSPvOZ2nIe85-4" value="" style="endArrow=classic;html=1;rounded=0;" parent="1" edge="1">
          <mxGeometry width="50" height="50" relative="1" as="geometry">
            <mxPoint x="260" y="539.5" as="sourcePoint" />
            <mxPoint x="220" y="539.5" as="targetPoint" />
          </mxGeometry>
        </mxCell>
        <mxCell id="DCk4KiSvBSPvOZ2nIe85-5" value="&lt;div&gt;&lt;b&gt;30 rev (fullstroke)&lt;/b&gt;&lt;/div&gt;" style="text;html=1;align=center;verticalAlign=middle;whiteSpace=wrap;rounded=0;fontColor=#000000;" parent="1" vertex="1">
          <mxGeometry x="440" y="520" width="120" height="40" as="geometry" />
        </mxCell>
      </root>
    </mxGraphModel>
  </diagram>
</mxfile>
